<svg version="1.1" viewBox="0.0 0.0 100.0 100.0" fill="none" stroke="none" stroke-linecap="square" stroke-miterlimit="10" xmlns:xlink="http://www.w3.org/1999/xlink" xmlns="http://www.w3.org/2000/svg"><clipPath id="p.0"><path d="m0 0l100.0 0l0 100.0l-100.0 0l0 -100.0z" clip-rule="nonzero"/></clipPath><g clip-path="url(#p.0)"><path fill="#000000" fill-opacity="0.0" d="m0 0l100.0 0l0 100.0l-100.0 0z" fill-rule="evenodd"/><path fill="#000000" fill-opacity="0.0" d="m3.9961765 35.681217l0 0c0 -17.499165 14.185876 -31.685041 31.685041 -31.685041l0 0c8.403393 0 16.462608 3.3382356 22.404705 9.280333c5.9421005 5.9420977 9.280334 14.001311 9.280334 22.404709l0 0c0 17.49916 -14.185879 31.68504 -31.68504 31.68504l0 0c-17.499165 0 -31.685041 -14.185879 -31.685041 -31.68504z" fill-rule="evenodd"/><path stroke="#000000" stroke-width="4.0" stroke-linejoin="round" stroke-linecap="butt" d="m3.9961765 35.681217l0 0c0 -17.499165 14.185876 -31.685041 31.685041 -31.685041l0 0c8.403393 0 16.462608 3.3382356 22.404705 9.280333c5.9421005 5.9420977 9.280334 14.001311 9.280334 22.404709l0 0c0 17.49916 -14.185879 31.68504 -31.68504 31.68504l0 0c-17.499165 0 -31.685041 -14.185879 -31.685041 -31.68504z" fill-rule="evenodd"/><path fill="#000000" fill-opacity="0.0" d="m58.085922 58.085922l37.921257 37.921257" fill-rule="evenodd"/><path stroke="#000000" stroke-width="4.0" stroke-linejoin="round" stroke-linecap="butt" d="m58.085922 58.085922l37.921257 37.921257" fill-rule="evenodd"/></g></svg>